<svg width="16" height="16" viewBox="0 0 16 16" fill="none" xmlns="http://www.w3.org/2000/svg">
<g clip-path="url(#clip0_2226_6430)">
<path d="M7.99985 0C3.58898 0 0 3.5872 0 7.99919C0 12.4095 3.58898 15.9984 7.99985 15.9984C12.4112 15.9984 16 12.4095 16 7.99919C16 3.5872 12.4112 0 7.99985 0ZM7.99985 14.2162C4.57127 14.2162 1.78223 11.4273 1.78223 7.99924C1.78223 4.56966 4.57127 1.7808 7.99985 1.7808C11.4288 1.7808 14.2179 4.56971 14.2179 7.99924C14.2178 11.4273 11.4288 14.2162 7.99985 14.2162Z" fill="#8D8D8D"/>
<path d="M10.6287 9.44899C10.1177 10.326 9.16736 10.87 8.14876 10.87C6.56695 10.87 5.27847 9.58179 5.27847 7.99994C5.27847 6.41677 6.56695 5.12817 8.14876 5.12817C9.16741 5.12817 10.1177 5.67418 10.6287 6.5494L10.6947 6.66378H12.6228L12.507 6.35338C12.1715 5.46457 11.5829 4.70886 10.8036 4.16947C10.0224 3.62869 9.10475 3.3418 8.14876 3.3418C5.58065 3.3418 3.49219 5.43204 3.49219 7.99994C3.49219 10.568 5.58065 12.6563 8.14876 12.6563C9.10475 12.6563 10.0223 12.3704 10.8036 11.8287C11.5829 11.2892 12.1715 10.5338 12.507 9.64497L12.6228 9.33439H10.6947L10.6287 9.44899Z" fill="#8D8D8D"/>
</g>
<defs>
<clipPath id="clip0_2226_6430">
<rect width="16" height="16" fill="white"/>
</clipPath>
</defs>
</svg>
