<svg width="32" height="32" viewBox="0 0 32 32" fill="none" xmlns="http://www.w3.org/2000/svg">
<path d="M24.7976 2L20.3555 8.6641C20.0819 9.0754 19.7108 9.41262 19.2753 9.64571C18.8398 9.8788 18.3534 10.0005 17.8594 10H12C11.2046 10.0009 10.4421 10.3172 9.87964 10.8796C9.31722 11.4421 9.00087 12.2046 9 13V19C9.00061 19.5302 9.21152 20.0386 9.58646 20.4135C9.9614 20.7885 10.4698 20.9994 11 21V28C11.0006 28.5302 11.2115 29.0386 11.5865 29.4135C11.9614 29.7885 12.4698 29.9994 13 30H17C17.5302 29.9994 18.0386 29.7885 18.4135 29.4135C18.7885 29.0386 18.9994 28.5302 19 28V16H17V28H13V19H11V13C11.0002 12.7349 11.1057 12.4806 11.2932 12.2932C11.4806 12.1057 11.7349 12.0002 12 12H17.8594C18.6827 12.001 19.4935 11.7982 20.2193 11.4097C20.9452 11.0212 21.5636 10.459 22.0194 9.7734L26.4616 3.1094L24.7976 2Z" fill="white"/>
<path d="M11 5C11 4.20888 11.2346 3.43552 11.6741 2.77772C12.1136 2.11992 12.7384 1.60723 13.4693 1.30448C14.2002 1.00173 15.0044 0.92252 15.7804 1.07686C16.5563 1.2312 17.269 1.61216 17.8284 2.17157C18.3878 2.73098 18.7688 3.44372 18.9231 4.21964C19.0775 4.99556 18.9983 5.79983 18.6955 6.53074C18.3928 7.26164 17.8801 7.88635 17.2223 8.32588C16.5645 8.76541 15.7911 9 15 9C13.9395 8.99889 12.9227 8.57711 12.1728 7.8272C11.4229 7.0773 11.0011 6.06053 11 5ZM13 5C13 5.39556 13.1173 5.78224 13.3371 6.11114C13.5568 6.44004 13.8692 6.69639 14.2346 6.84776C14.6001 6.99914 15.0022 7.03874 15.3902 6.96157C15.7781 6.8844 16.1345 6.69392 16.4142 6.41422C16.6939 6.13451 16.8844 5.77814 16.9616 5.39018C17.0387 5.00222 16.9991 4.60009 16.8478 4.23463C16.6964 3.86918 16.44 3.55683 16.1111 3.33706C15.7822 3.1173 15.3956 3 15 3C14.4698 3.00061 13.9614 3.21152 13.5865 3.58646C13.2115 3.9614 13.0006 4.46976 13 5Z" fill="white"/>
</svg>
