<svg width="32" height="32" viewBox="0 0 32 32" fill="none" xmlns="http://www.w3.org/2000/svg">
<path d="M4 20V22H7.586L2 27.586L3.414 29L9 23.414V27H11V20H4ZM19 10H26V12H19V10ZM19 15H26V17H19V15ZM19 20H26V22H19V20Z" fill="white"/>
<path d="M28 5H4C3.46973 5.00053 2.96133 5.21141 2.58637 5.58637C2.21141 5.96133 2.00053 6.46973 2 7V17H4V7H15V27H28C28.5303 26.9995 29.0387 26.7886 29.4136 26.4136C29.7886 26.0387 29.9995 25.5303 30 25V7C29.9995 6.46973 29.7886 5.96133 29.4136 5.58637C29.0387 5.21141 28.5303 5.00053 28 5ZM17 25V7H28L28.0015 25H17Z" fill="white"/>
</svg>
